# xmcd CD database file
#
# Track frame offsets:
#	150
#	39579
#	99458
#	122073
#	179895
#	196545
#	248037
#	275560
#	309891
#	338972
#
# Disc length: 4729 seconds
#
# Revision: 0
# Processed by: cddbd v1.5.2PL0 Copyright (c) Steve Scherf et al.
# Submitted via: CDex 1.51
#
DISCID=8912770a
DTITLE=Deep Purple - Ritchie's Blues
DYEAR=1969
DGENRE=Blues
TTITLE0=Kneel And Pray
TTITLE1=Child In Time
TTITLE2=Mandrake Root
TTITLE3=Wring That Neck
TTITLE4=Ritchie's Blues
TTITLE5=Paint In Black
TTITLE6=Highway Star
TTITLE7=Strange Kind Of Women
TTITLE8=Prefect Strangers
TTITLE9=Hush
EXTD=YEAR: 1969
EXTT0=
EXTT1=
EXTT2=
EXTT3=
EXTT4=
EXTT5=
EXTT6=
EXTT7=
EXTT8=
EXTT9=
PLAYORDER=
